<?xml version="1.0" encoding="iso-8859-1"?>
<!-- Generator: Adobe Illustrator 19.0.0, SVG Export Plug-In . SVG Version: 6.00 Build 0)  -->
<svg version="1.1" id="Layer_1" xmlns="http://www.w3.org/2000/svg" xmlns:xlink="http://www.w3.org/1999/xlink" x="0px" y="0px"
	 viewBox="0 0 512.001 512.001" style="enable-background:new 0 0 512.001 512.001;" xml:space="preserve">
<g>
	<g>
		<path d="M279.369,208.346c-21.068-0.02-38.203-17.165-38.203-38.238c0-12.989,6.44-24.636,16.654-31.58v-0.148V119.22
			c0-8.255-3.12-15.793-8.238-21.505c-7.266,0-40.397,0-48.056,0c-5.118,5.713-8.238,13.25-8.238,21.505v17.188
			c19.078,8.402,32.199,27.553,32.199,49.245v20.91c0,18.126-14.746,32.872-32.872,32.872c-4.37,0-13.678,0.898-20.91-7.869
			c-0.011,0.014-0.024,0.027-0.036,0.041c0,0,0.01,231.556,0.01,255.994c0,13.476,10.924,24.4,24.4,24.4
			c13.476,0,24.4-10.924,24.4-24.4v-195.03h10.535v39.669c4.881-10.327,15.394-17.491,27.553-17.491h21.246
			C279.812,290.453,279.369,208.346,279.369,208.346z"/>
	</g>
</g>
<g>
	<g>
		<path d="M258.568,466.491c-12.16,0-22.673-7.164-27.554-17.491v38.601c0,13.476,10.924,24.4,24.4,24.4
			c13.476,0,24.4-10.924,24.4-24.4v-21.11H258.568z"/>
	</g>
</g>
<g>
	<g>
		<path d="M171.704,175.038c-0.012,0-0.023,0.002-0.036,0.002v29.057c0.011,0.013,0.024,0.026,0.036,0.04
			c2.722-3.3,6.404-5.78,10.615-7.009v-11.475C182.319,179.799,177.557,175.038,171.704,175.038z"/>
	</g>
</g>
<g>
	<g>
		<path d="M117.921,206.563v-19.018l-12.254,105.174c-1.405,12.052,8.003,22.689,20.222,22.689c10.177,0,18.965-7.627,20.171-17.981
			l6.757-57.99C130.858,239.435,117.921,223.529,117.921,206.563z"/>
	</g>
</g>
<g>
	<g>
		<path d="M122.959,144.309l-3.198,27.44c4.24-15.722,15.487-28.792,30.359-35.342V119.22c0-6.077,0.742-11.981,2.105-17.646
			C135.485,108.739,123.562,125.133,122.959,144.309z"/>
	</g>
</g>
<g>
	<g>
		<path d="M180.032,145.99V119.22c0-12.524,5.104-23.862,13.319-32.097c-4.529-3.27-8.552-7.198-11.914-11.655
			c-11.155,11.241-18.06,26.702-18.06,43.751v26.771c-18.364,3.852-32.199,20.17-32.199,39.662v20.91
			c0,10.815,8.799,19.616,19.616,19.616h4.256c4.599,0,8.327-3.728,8.327-8.327s-3.728-8.327-8.327-8.327h-4.256
			c-1.633,0-2.961-1.328-2.961-2.961v-20.91c0-13.163,10.709-23.871,23.871-23.871c13.163,0,23.872,10.709,23.872,23.871v20.91
			c0,1.632-1.328,2.961-2.961,2.961h-4.256c-4.599,0-8.327,3.728-8.327,8.327c0,4.599,3.728,8.327,8.327,8.327h4.256
			c10.815,0,19.616-8.799,19.616-19.616v-20.91C212.23,166.16,198.396,149.842,180.032,145.99z"/>
	</g>
</g>
<g>
	<g>
		<path d="M287.732,146.559V119.22c0-16.945-6.819-32.321-17.853-43.544c-3.382,4.441-7.421,8.352-11.966,11.602
			c8.124,8.223,13.164,19.497,13.164,31.942v27.339c-9.692,3.437-16.654,12.693-16.654,23.549c0,13.776,11.207,24.982,24.982,24.982
			s24.982-11.206,24.982-24.982C304.387,159.253,297.424,149.996,287.732,146.559z M279.405,178.435
			c-4.592,0-8.327-3.735-8.327-8.327c0-4.592,3.735-8.327,8.327-8.327s8.327,3.735,8.327,8.327
			C287.732,174.7,283.997,178.435,279.405,178.435z"/>
	</g>
</g>
<g>
	<g>
		<path d="M225.741,0c-23.274,0-42.14,18.867-42.14,42.14c0,23.263,18.904,42.141,42.14,42.141c23.267,0,42.14-18.895,42.14-42.14
			C267.881,18.867,249.015,0,225.741,0z"/>
	</g>
</g>
<g>
	<g>
		<path d="M392.668,331.404h-26.895c0-20.477,0-15.85,0-36.332c0-4.599-3.727-8.327-8.327-8.327h-12.328l-16.596-142.435
			c-0.608-19.335-12.722-35.849-29.681-42.92c1.392,5.72,2.147,11.687,2.147,17.829v19.308c10.215,6.944,16.654,18.591,16.654,31.58
			c0,15.66-9.466,29.144-22.973,35.05l9.506,81.587h-10.388c-4.6,0-8.327,3.728-8.327,8.327c0,20.474,0,15.862,0,36.332h-26.895
			c-7.624,0-13.805,6.181-13.805,13.807v90.82c0,7.624,6.181,13.807,13.805,13.807h134.101c7.624,0,13.805-6.181,13.805-13.807
			v-90.82C406.474,337.586,400.293,331.404,392.668,331.404z M302.116,319.103c0-2.553,0-3.422,0-3.434c0-2.387,0-6.245,0-12.27
			h4.964c3.106,6.917,9.974,11.909,18.538,11.906c8.617-0.003,15.428-5.029,18.528-11.906h4.973c0,6.019,0,9.878,0,12.267
			c0,2.57,0,3.439,0,3.448c0,2.393,0,6.258,0,12.291h-47.002C302.116,325.361,302.116,321.494,302.116,319.103z M363.214,402.381
			c0,3.112-2.523,5.635-5.635,5.635h-14.567v14.567c0,3.112-2.523,5.635-5.635,5.635h-23.521c-3.112,0-5.635-2.523-5.635-5.635
			v-14.567h-14.567c-3.112,0-5.635-2.523-5.635-5.635V378.86c0-3.112,2.523-5.635,5.635-5.635h14.567v-6.169v-8.398
			c0-3.112,2.523-5.635,5.635-5.635h23.521c3.112,0,5.635,2.523,5.635,5.635v8.398v6.169h14.567c3.112,0,5.635,2.523,5.635,5.635
			V402.381z"/>
	</g>
</g>
<g>
</g>
<g>
</g>
<g>
</g>
<g>
</g>
<g>
</g>
<g>
</g>
<g>
</g>
<g>
</g>
<g>
</g>
<g>
</g>
<g>
</g>
<g>
</g>
<g>
</g>
<g>
</g>
<g>
</g>
</svg>
